<?xml version="1.0" encoding="UTF-8" standalone="no"?>
<!DOCTYPE svg PUBLIC "-//W3C//DTD SVG 1.1//EN" "http://www.w3.org/Graphics/SVG/1.1/DTD/svg11.dtd">
<svg width="100%" height="100%" viewBox="0 0 128 128" version="1.1" xmlns="http://www.w3.org/2000/svg" xmlns:xlink="http://www.w3.org/1999/xlink" xml:space="preserve" xmlns:serif="http://www.serif.com/" style="fill-rule:evenodd;clip-rule:evenodd;stroke-linejoin:round;stroke-miterlimit:2;">
    <g transform="matrix(1,0,0,1,3.3125,11.84375)">
        <path d="M31.625,72C31.625,69.625 32,67.24 32.75,64.844C33.5,62.448 34.573,60.208 35.969,58.125C37.365,56.042 39.094,54.146 41.156,52.438C43.219,50.729 45.562,49.375 48.188,48.375C44.312,46.208 41.229,43.427 38.938,40.031C36.646,36.635 35.5,32.875 35.5,28.75C35.5,25.458 36.135,22.417 37.406,19.625C38.677,16.833 40.438,14.417 42.688,12.375C44.938,10.333 47.604,8.74 50.688,7.594C53.771,6.448 57.104,5.875 60.688,5.875C64.312,5.875 67.667,6.458 70.75,7.625C73.833,8.792 76.5,10.396 78.75,12.438C81,14.479 82.75,16.896 84,19.688C85.25,22.479 85.875,25.5 85.875,28.75C85.875,32.875 84.729,36.635 82.438,40.031C80.146,43.427 77.104,46.208 73.312,48.375C75.896,49.375 78.208,50.729 80.25,52.438C82.292,54.146 84.01,56.042 85.406,58.125C86.802,60.208 87.875,62.448 88.625,64.844C89.375,67.24 89.75,69.625 89.75,72C89.75,75.917 89.042,79.5 87.625,82.75C86.208,86 84.219,88.781 81.656,91.094C79.094,93.406 76.031,95.208 72.469,96.5C68.906,97.792 64.979,98.438 60.688,98.438C56.438,98.438 52.542,97.792 49,96.5C45.458,95.208 42.396,93.406 39.812,91.094C37.229,88.781 35.219,86 33.781,82.75C32.344,79.5 31.625,75.917 31.625,72ZM42.75,71.125C42.75,73.917 43.177,76.438 44.031,78.688C44.885,80.938 46.094,82.854 47.656,84.438C49.219,86.021 51.115,87.24 53.344,88.094C55.573,88.948 58.042,89.375 60.75,89.375C63.375,89.375 65.792,88.938 68,88.062C70.208,87.188 72.115,85.958 73.719,84.375C75.323,82.792 76.573,80.875 77.469,78.625C78.365,76.375 78.812,73.875 78.812,71.125C78.812,68.625 78.385,66.281 77.531,64.094C76.677,61.906 75.458,59.979 73.875,58.312C72.292,56.646 70.396,55.333 68.188,54.375C65.979,53.417 63.5,52.938 60.75,52.938C58.167,52.938 55.781,53.385 53.594,54.281C51.406,55.177 49.51,56.427 47.906,58.031C46.302,59.635 45.042,61.552 44.125,63.781C43.208,66.01 42.75,68.458 42.75,71.125ZM45.938,29.562C45.938,31.688 46.323,33.656 47.094,35.469C47.865,37.281 48.927,38.865 50.281,40.219C51.635,41.573 53.208,42.635 55,43.406C56.792,44.177 58.708,44.562 60.75,44.562C62.792,44.562 64.719,44.167 66.531,43.375C68.344,42.583 69.917,41.51 71.25,40.156C72.583,38.802 73.646,37.219 74.438,35.406C75.229,33.594 75.625,31.646 75.625,29.562C75.625,27.396 75.24,25.396 74.469,23.562C73.698,21.729 72.646,20.146 71.312,18.812C69.979,17.479 68.406,16.427 66.594,15.656C64.781,14.885 62.833,14.5 60.75,14.5C58.542,14.5 56.531,14.896 54.719,15.688C52.906,16.479 51.344,17.552 50.031,18.906C48.719,20.26 47.708,21.854 47,23.688C46.292,25.521 45.938,27.479 45.938,29.562Z" style="fill-rule:nonzero;"/>
    </g>
</svg>
