<?xml version="1.0" encoding="UTF-8" standalone="no"?>
<!DOCTYPE svg PUBLIC "-//W3C//DTD SVG 1.1//EN" "http://www.w3.org/Graphics/SVG/1.1/DTD/svg11.dtd">
<svg width="100%" height="100%" viewBox="0 0 128 128" version="1.1" xmlns="http://www.w3.org/2000/svg" xmlns:xlink="http://www.w3.org/1999/xlink" xml:space="preserve" xmlns:serif="http://www.serif.com/" style="fill-rule:evenodd;clip-rule:evenodd;stroke-linejoin:round;stroke-miterlimit:2;">
    <g transform="matrix(1,0,0,1,2.59375,11.03125)">
        <path d="M86.562,69.625C86.562,74 85.812,77.958 84.312,81.5C82.812,85.042 80.677,88.083 77.906,90.625C75.135,93.167 71.792,95.125 67.875,96.5C63.958,97.875 59.604,98.562 54.812,98.562C46.479,98.562 40.292,97.312 36.25,94.812L36.25,83.938C42.333,87.854 48.562,89.812 54.938,89.812C58.188,89.812 61.115,89.333 63.719,88.375C66.323,87.417 68.542,86.083 70.375,84.375C72.208,82.667 73.615,80.604 74.594,78.188C75.573,75.771 76.062,73.125 76.062,70.25C76.062,64.417 74.104,59.844 70.188,56.531C66.271,53.219 60.583,51.562 53.125,51.562C51.917,51.562 50.646,51.583 49.312,51.625C47.979,51.667 46.646,51.719 45.312,51.781C43.979,51.844 42.677,51.917 41.406,52C40.135,52.083 38.979,52.188 37.938,52.312L41,7.375L82.438,7.375L82.438,16.625L49.875,16.625L48.062,42.938C49.396,42.854 50.812,42.781 52.312,42.719C53.812,42.656 55.146,42.625 56.312,42.625C61.062,42.625 65.312,43.25 69.062,44.5C72.812,45.75 75.99,47.531 78.594,49.844C81.198,52.156 83.177,54.99 84.531,58.344C85.885,61.698 86.562,65.458 86.562,69.625Z" style="fill-rule:nonzero;"/>
    </g>
</svg>
