<?xml version="1.0" encoding="UTF-8" standalone="no"?>
<!DOCTYPE svg PUBLIC "-//W3C//DTD SVG 1.1//EN" "http://www.w3.org/Graphics/SVG/1.1/DTD/svg11.dtd">
<svg width="100%" height="100%" viewBox="0 0 128 128" version="1.1" xmlns="http://www.w3.org/2000/svg" xmlns:xlink="http://www.w3.org/1999/xlink" xml:space="preserve" xmlns:serif="http://www.serif.com/" style="fill-rule:evenodd;clip-rule:evenodd;stroke-linejoin:round;stroke-miterlimit:2;">
    <g transform="matrix(1,0,0,1,2.25,11.8125)">
        <path d="M79.125,7.375L79.125,66.562L90.625,66.562L90.625,75.938L79.125,75.938L79.125,97L69,97L69,75.938L26.875,75.938L26.875,67.062C30.792,62.646 34.75,57.927 38.75,52.906C42.75,47.885 46.573,42.792 50.219,37.625C53.865,32.458 57.24,27.302 60.344,22.156C63.448,17.01 66.062,12.083 68.188,7.375L79.125,7.375ZM38.438,66.562L69,66.562L69,22.688C65.875,28.146 62.917,33.021 60.125,37.312C57.333,41.604 54.677,45.5 52.156,49C49.635,52.5 47.229,55.667 44.938,58.5C42.646,61.333 40.479,64.021 38.438,66.562Z" style="fill-rule:nonzero;"/>
    </g>
</svg>
