<?xml version="1.0" encoding="UTF-8" standalone="no"?>
<!DOCTYPE svg PUBLIC "-//W3C//DTD SVG 1.1//EN" "http://www.w3.org/Graphics/SVG/1.1/DTD/svg11.dtd">
<svg width="100%" height="100%" viewBox="0 0 128 128" version="1.1" xmlns="http://www.w3.org/2000/svg" xmlns:xlink="http://www.w3.org/1999/xlink" xml:space="preserve" xmlns:serif="http://www.serif.com/" style="fill-rule:evenodd;clip-rule:evenodd;stroke-linejoin:round;stroke-miterlimit:2;">
    <g transform="matrix(1,0,0,1,3.6875,11.78125)">
        <path d="M88.75,46.812C88.75,55.021 87.938,62.323 86.312,68.719C84.688,75.115 82.312,80.531 79.188,84.969C76.062,89.406 72.25,92.781 67.75,95.094C63.25,97.406 58.125,98.562 52.375,98.562C46.458,98.562 41.25,97.521 36.75,95.438L36.75,85.625C41.708,88.417 47,89.812 52.625,89.812C56.667,89.812 60.281,88.979 63.469,87.312C66.656,85.646 69.354,83.219 71.562,80.031C73.771,76.844 75.458,72.917 76.625,68.25C77.792,63.583 78.375,58.229 78.375,52.188L78.125,52.188C74.292,59.896 67.625,63.75 58.125,63.75C54.292,63.75 50.771,63.073 47.562,61.719C44.354,60.365 41.583,58.448 39.25,55.969C36.917,53.49 35.104,50.542 33.812,47.125C32.521,43.708 31.875,39.938 31.875,35.812C31.875,31.396 32.594,27.354 34.031,23.688C35.469,20.021 37.469,16.865 40.031,14.219C42.594,11.573 45.635,9.521 49.156,8.062C52.677,6.604 56.521,5.875 60.688,5.875C65.188,5.875 69.177,6.781 72.656,8.594C76.135,10.406 79.062,13.052 81.438,16.531C83.812,20.01 85.625,24.292 86.875,29.375C88.125,34.458 88.75,40.271 88.75,46.812ZM77.688,37.625C77.688,34.167 77.24,31.021 76.344,28.188C75.448,25.354 74.208,22.927 72.625,20.906C71.042,18.885 69.156,17.323 66.969,16.219C64.781,15.115 62.396,14.562 59.812,14.562C57.354,14.562 55.062,15.052 52.938,16.031C50.812,17.01 48.969,18.385 47.406,20.156C45.844,21.927 44.615,24.031 43.719,26.469C42.823,28.906 42.375,31.562 42.375,34.438C42.375,37.604 42.802,40.438 43.656,42.938C44.51,45.438 45.729,47.552 47.312,49.281C48.896,51.01 50.802,52.333 53.031,53.25C55.26,54.167 57.729,54.625 60.438,54.625C62.812,54.625 65.052,54.177 67.156,53.281C69.26,52.385 71.094,51.177 72.656,49.656C74.219,48.135 75.448,46.344 76.344,44.281C77.24,42.219 77.688,40 77.688,37.625Z" style="fill-rule:nonzero;"/>
    </g>
</svg>
