<?xml version="1.0" encoding="UTF-8" standalone="no"?>
<!DOCTYPE svg PUBLIC "-//W3C//DTD SVG 1.1//EN" "http://www.w3.org/Graphics/SVG/1.1/DTD/svg11.dtd">
<svg width="100%" height="100%" viewBox="0 0 128 128" version="1.1" xmlns="http://www.w3.org/2000/svg" xmlns:xlink="http://www.w3.org/1999/xlink" xml:space="preserve" xmlns:serif="http://www.serif.com/" style="fill-rule:evenodd;clip-rule:evenodd;stroke-linejoin:round;stroke-miterlimit:2;">
    <g transform="matrix(1,0,0,1,1.59375,11.78125)">
        <path d="M89.875,68.562C89.875,72.938 89.167,76.958 87.75,80.625C86.333,84.292 84.375,87.458 81.875,90.125C79.375,92.792 76.396,94.865 72.938,96.344C69.479,97.823 65.729,98.562 61.688,98.562C57.188,98.562 53.156,97.625 49.594,95.75C46.031,93.875 43.01,91.177 40.531,87.656C38.052,84.135 36.167,79.833 34.875,74.75C33.583,69.667 32.938,63.938 32.938,57.562C32.938,49.771 33.802,42.698 35.531,36.344C37.26,29.99 39.719,24.552 42.906,20.031C46.094,15.51 49.938,12.021 54.438,9.562C58.938,7.104 63.958,5.875 69.5,5.875C75.667,5.875 80.625,6.729 84.375,8.438L84.375,18.125C79.75,15.75 74.875,14.562 69.75,14.562C65.75,14.562 62.146,15.458 58.938,17.25C55.729,19.042 52.979,21.573 50.688,24.844C48.396,28.115 46.635,32.062 45.406,36.688C44.177,41.312 43.562,46.458 43.562,52.125L43.812,52.125C47.938,44.667 54.75,40.938 64.25,40.938C68.167,40.938 71.698,41.604 74.844,42.938C77.99,44.271 80.677,46.156 82.906,48.594C85.135,51.031 86.854,53.938 88.062,57.312C89.271,60.688 89.875,64.438 89.875,68.562ZM79.375,69.875C79.375,66.75 78.979,63.938 78.188,61.438C77.396,58.938 76.26,56.812 74.781,55.062C73.302,53.312 71.479,51.969 69.312,51.031C67.146,50.094 64.688,49.625 61.938,49.625C59.396,49.625 57.042,50.104 54.875,51.062C52.708,52.021 50.833,53.323 49.25,54.969C47.667,56.615 46.427,58.531 45.531,60.719C44.635,62.906 44.188,65.229 44.188,67.688C44.188,70.771 44.625,73.656 45.5,76.344C46.375,79.031 47.604,81.375 49.188,83.375C50.771,85.375 52.656,86.948 54.844,88.094C57.031,89.24 59.458,89.812 62.125,89.812C64.708,89.812 67.062,89.323 69.188,88.344C71.312,87.365 73.125,86 74.625,84.25C76.125,82.5 77.292,80.406 78.125,77.969C78.958,75.531 79.375,72.833 79.375,69.875Z" style="fill-rule:nonzero;"/>
    </g>
</svg>
