<?xml version="1.0" encoding="UTF-8" standalone="no"?>
<!DOCTYPE svg PUBLIC "-//W3C//DTD SVG 1.1//EN" "http://www.w3.org/Graphics/SVG/1.1/DTD/svg11.dtd">
<svg width="100%" height="100%" viewBox="0 0 128 128" version="1.1" xmlns="http://www.w3.org/2000/svg" xmlns:xlink="http://www.w3.org/1999/xlink" xml:space="preserve" xmlns:serif="http://www.serif.com/" style="fill-rule:evenodd;clip-rule:evenodd;stroke-linejoin:round;stroke-miterlimit:2;">
    <g transform="matrix(1,0,0,1,4.375,11.78125)">
        <path d="M85.562,71.625C85.562,75.667 84.802,79.344 83.281,82.656C81.76,85.969 79.615,88.802 76.844,91.156C74.073,93.51 70.75,95.333 66.875,96.625C63,97.917 58.729,98.562 54.062,98.562C45.521,98.562 38.729,96.938 33.688,93.688L33.688,82.688C39.729,87.438 46.646,89.812 54.438,89.812C57.562,89.812 60.385,89.417 62.906,88.625C65.427,87.833 67.594,86.688 69.406,85.188C71.219,83.688 72.615,81.875 73.594,79.75C74.573,77.625 75.062,75.229 75.062,72.562C75.062,60.854 66.729,55 50.062,55L42.625,55L42.625,46.312L49.688,46.312C64.438,46.312 71.812,40.812 71.812,29.812C71.812,19.646 66.188,14.562 54.938,14.562C48.604,14.562 42.667,16.688 37.125,20.938L37.125,11C42.833,7.583 49.625,5.875 57.5,5.875C61.25,5.875 64.646,6.396 67.688,7.438C70.729,8.479 73.333,9.938 75.5,11.812C77.667,13.688 79.344,15.938 80.531,18.562C81.719,21.188 82.312,24.083 82.312,27.25C82.312,39.042 76.354,46.625 64.438,50L64.438,50.25C67.479,50.583 70.292,51.323 72.875,52.469C75.458,53.615 77.688,55.104 79.562,56.938C81.438,58.771 82.906,60.927 83.969,63.406C85.031,65.885 85.562,68.625 85.562,71.625Z" style="fill-rule:nonzero;"/>
    </g>
</svg>
