<?xml version="1.0" encoding="UTF-8" standalone="no"?>
<!DOCTYPE svg PUBLIC "-//W3C//DTD SVG 1.1//EN" "http://www.w3.org/Graphics/SVG/1.1/DTD/svg11.dtd">
<svg width="100%" height="100%" viewBox="0 0 128 128" version="1.1" xmlns="http://www.w3.org/2000/svg" xmlns:xlink="http://www.w3.org/1999/xlink" xml:space="preserve" xmlns:serif="http://www.serif.com/" style="fill-rule:evenodd;clip-rule:evenodd;stroke-linejoin:round;stroke-miterlimit:2;">
    <g transform="matrix(1,0,0,1,3.53125,12.5625)">
        <path d="M74.25,30.875C74.25,28.125 73.823,25.729 72.969,23.688C72.115,21.646 70.948,19.948 69.469,18.594C67.99,17.24 66.25,16.229 64.25,15.562C62.25,14.896 60.083,14.562 57.75,14.562C55.75,14.562 53.792,14.833 51.875,15.375C49.958,15.917 48.094,16.667 46.281,17.625C44.469,18.583 42.719,19.729 41.031,21.062C39.344,22.396 37.771,23.875 36.312,25.5L36.312,14.5C39.188,11.708 42.406,9.573 45.969,8.094C49.531,6.615 53.875,5.875 59,5.875C62.667,5.875 66.062,6.406 69.188,7.469C72.312,8.531 75.021,10.083 77.312,12.125C79.604,14.167 81.406,16.688 82.719,19.688C84.031,22.688 84.688,26.125 84.688,30C84.688,33.542 84.281,36.75 83.469,39.625C82.656,42.5 81.427,45.208 79.781,47.75C78.135,50.292 76.062,52.729 73.562,55.062C71.062,57.396 68.125,59.771 64.75,62.188C60.542,65.188 57.073,67.75 54.344,69.875C51.615,72 49.448,73.99 47.844,75.844C46.24,77.698 45.115,79.552 44.469,81.406C43.823,83.26 43.5,85.396 43.5,87.812L88.125,87.812L88.125,97L32.812,97L32.812,92.562C32.812,88.729 33.229,85.354 34.062,82.438C34.896,79.521 36.271,76.75 38.188,74.125C40.104,71.5 42.615,68.875 45.719,66.25C48.823,63.625 52.625,60.667 57.125,57.375C60.375,55.042 63.094,52.812 65.281,50.688C67.469,48.562 69.229,46.438 70.562,44.312C71.896,42.188 72.844,40.031 73.406,37.844C73.969,35.656 74.25,33.333 74.25,30.875Z" style="fill-rule:nonzero;"/>
    </g>
</svg>
