<?xml version="1.0" encoding="UTF-8" standalone="no"?>
<!DOCTYPE svg PUBLIC "-//W3C//DTD SVG 1.1//EN" "http://www.w3.org/Graphics/SVG/1.1/DTD/svg11.dtd">
<svg width="100%" height="100%" viewBox="0 0 128 128" version="1.1" xmlns="http://www.w3.org/2000/svg" xmlns:xlink="http://www.w3.org/1999/xlink" xml:space="preserve" xmlns:serif="http://www.serif.com/" style="fill-rule:evenodd;clip-rule:evenodd;stroke-linejoin:round;stroke-miterlimit:2;">
    <g transform="matrix(1,0,0,1,3.4375,11.78125)">
        <path d="M89.75,51.812C89.75,59.312 89.073,65.958 87.719,71.75C86.365,77.542 84.406,82.427 81.844,86.406C79.281,90.385 76.135,93.406 72.406,95.469C68.677,97.531 64.438,98.562 59.688,98.562C55.188,98.562 51.177,97.573 47.656,95.594C44.135,93.615 41.167,90.729 38.75,86.938C36.333,83.146 34.5,78.49 33.25,72.969C32,67.448 31.375,61.125 31.375,54C31.375,46.167 32.031,39.25 33.344,33.25C34.656,27.25 36.583,22.219 39.125,18.156C41.667,14.094 44.823,11.031 48.594,8.969C52.365,6.906 56.688,5.875 61.562,5.875C80.354,5.875 89.75,21.188 89.75,51.812ZM79.25,52.812C79.25,27.312 73.188,14.562 61.062,14.562C48.271,14.562 41.875,27.542 41.875,53.5C41.875,77.708 48.146,89.812 60.688,89.812C73.062,89.812 79.25,77.479 79.25,52.812Z" style="fill-rule:nonzero;"/>
    </g>
</svg>
